<?xml version="1.0" encoding="utf-8" ?><svg xmlns="http://www.w3.org/2000/svg" xmlns:xlink="http://www.w3.org/1999/xlink" width="1024" height="1024" viewBox="0 0 1024 1024"><path d="M271.997 156.645L270.973 155.946L271.16 155.189C283.941 147.994 373.238 175.591 390.986 181.641C399.106 184.408 410.234 189.316 418.74 192.048C422.019 193.103 434.737 190.689 439.643 190.621C468.336 190.22 502.599 194.082 517.805 222.101C520.532 227.126 522.245 231.379 524.296 236.633C530.535 240.612 554.639 257.004 558.668 262.693C569.17 271.207 580.358 280.515 589.42 290.551C594.539 296.221 598.514 303.235 603.577 308.973C607.352 313.208 614.24 314.977 619.003 319.762C628.161 328.962 631.687 338.195 637.509 349.401C640.92 355.966 643.959 360.523 646.604 367.68C648.241 372.132 649.314 376.772 649.796 381.491C649.962 383.096 650.106 384.702 650.23 386.311C662.39 401.084 672.285 417.723 672.568 437.508C672.622 441.251 672.765 445.35 673.143 449.07C685.605 448.856 702.146 447.111 714.755 445.745C728.618 444.254 742.468 442.641 756.302 440.907C769.809 438.976 783.375 437.486 796.979 436.438C799.82 436.191 809.298 435.286 811.741 435.578C821.428 434.547 831.266 434.326 842.124 434.364C877.371 434.488 915.521 436.965 947.551 453.123C948.499 453.601 948.7 454.282 948.986 455.135C947.138 457.98 914.357 468.45 908.133 470.576C876.527 481.619 845.213 493.48 814.223 506.147C772.98 522.907 732.173 540.535 689.557 553.637C678.862 556.925 668.338 559.483 657.549 562.317C673.02 588.48 694.874 606.982 720.488 622.853C724.129 625.109 735.25 630.605 735.561 634.381C734.228 637.039 731.454 638.412 728.773 639.553C708.722 648.081 686.338 650.503 664.717 649.963C659.805 649.84 653.446 649.98 648.897 648.38C641.678 647.887 631.057 647.96 624.639 647.238C606.821 645.234 581.63 640.03 565.231 633.028C537.869 682.208 636.813 703.141 656.613 733.661C658.608 736.735 661.294 739.878 661.319 743.722C659.371 744.682 649.47 743.413 646.716 743.203C652.955 751.473 661.182 761.181 663.727 771.192C665.704 778.967 670.594 800.365 665.996 807.509C665.363 807.866 664.725 808.423 664.235 808.207C662.065 807.25 658.533 804.145 656.576 802.694C656.299 812.598 652.982 830.654 648.514 839.206C639.925 844.509 626.531 847.904 616.527 850.259C566.813 861.957 510.314 859.349 460.78 847.662C428.204 839.76 396.637 828.162 366.694 813.093C360.827 810.178 351.009 805.434 345.773 801.784C342.359 800.693 339.09 799.189 336.041 797.306C342.189 779.166 355.588 755.697 366.458 740.012C384.14 714.495 411.522 686.203 410.451 652.706C409.025 625.087 392.862 604.259 373.086 586.575C359.553 574.473 361.289 575.27 344.005 571.467C305.942 563.091 275.672 519.391 274.25 481.543C255.387 471.836 242.135 463.993 225.397 450.904C195.334 427.502 171.253 397.302 155.132 362.783C149.151 349.759 145.56 340.803 143.828 326.558C146.019 327.915 148.247 329.507 150.308 331.063C161.61 339.593 173.221 347.112 185.285 354.529C161.892 323.643 133.284 290.766 97.966 273.425C85.4342 267.272 76.8612 265.875 64.871 261.29L64.2863 261.063C82.9065 234.052 129.686 217.006 160.867 209.984L167.553 208.388C165.098 208.048 162.64 207.728 160.179 207.428C158.986 207.427 145.977 206.36 145.485 206.163C141.43 206.793 127.541 207.876 124.15 206.57L124.186 205.344C125.86 197.208 148.947 187.873 155.963 185.248C163.567 182.403 194.74 173.06 200.774 175.854C207.489 174.849 213.088 174.128 219.783 172.514C221.217 172.168 224.136 173.115 227.823 172.404C238.714 168.971 275.189 169.636 286.689 171.726C283.369 168.654 274.127 160.005 271.997 156.645Z"/><path fill="#F1F1F1" d="M145.485 206.163C154.747 203.69 175.986 206.646 185.582 208.022C145.59 213.476 96.7101 229.128 68.8085 259.568C72.7059 260.978 76.7923 262.534 80.702 263.74C115.171 274.378 142.933 299.059 165.846 326.089C175.479 337.453 185.027 350.113 195.483 361.021C178.024 354.096 160.119 341.273 145.449 329.62C163.773 390.263 205.329 441.202 261.056 471.333C266.461 474.154 271.928 476.856 277.452 479.436C279.511 508.178 290.44 532.137 312.321 551.361C327.214 564.446 341.552 568.876 360.591 571.62C384.921 591.46 409.956 614.738 413.17 647.637C415.324 669.674 402.862 696.637 389.504 713.705C368.552 740.476 351.943 765.06 338.32 796.695C340.753 798.246 343.62 799.925 345.773 801.784C342.359 800.693 339.09 799.189 336.041 797.306C342.189 779.166 355.588 755.697 366.458 740.012C384.14 714.495 411.522 686.203 410.451 652.706C409.025 625.087 392.862 604.259 373.086 586.575C359.553 574.473 361.289 575.27 344.005 571.467C305.942 563.091 275.672 519.391 274.25 481.543C255.387 471.836 242.135 463.993 225.397 450.904C195.334 427.502 171.253 397.302 155.132 362.783C149.151 349.759 145.56 340.803 143.828 326.558C146.019 327.915 148.247 329.507 150.308 331.063C161.61 339.593 173.221 347.112 185.285 354.529C161.892 323.643 133.284 290.766 97.966 273.425C85.4342 267.272 76.8612 265.875 64.871 261.29L64.2863 261.063C82.9065 234.052 129.686 217.006 160.867 209.984L167.553 208.388C165.098 208.048 162.64 207.728 160.179 207.428C158.986 207.427 145.977 206.36 145.485 206.163Z"/><path fill="#F1F1F1" d="M811.741 435.578C821.428 434.547 831.266 434.326 842.124 434.364C877.371 434.488 915.521 436.965 947.551 453.123C948.499 453.601 948.7 454.282 948.986 455.135C947.138 457.98 914.357 468.45 908.133 470.576C876.527 481.619 845.213 493.48 814.223 506.147C772.98 522.907 732.173 540.535 689.557 553.637C678.862 556.925 668.338 559.483 657.549 562.317C673.02 588.48 694.874 606.982 720.488 622.853C724.129 625.109 735.25 630.605 735.561 634.381C734.228 637.039 731.454 638.412 728.773 639.553C708.722 648.081 686.338 650.503 664.717 649.963C659.805 649.84 653.446 649.98 648.897 648.38C654.995 647.804 661.802 648.247 668.006 648.019C691.692 647.149 712.931 646.989 733.418 633.647C730.602 631.682 727.119 629.814 724.144 628.032C695.889 611.108 669.332 589.736 653.27 560.336C706.767 549.211 756.664 526.382 807.015 506.056C833.847 495.045 860.865 484.493 888.058 474.406C907.248 467.422 925.893 461.377 945.221 454.967C908.377 440.284 870.343 436.394 831.013 438.166C820.68 438.631 810.685 439.557 800.4 440.195C805.454 437.087 814.17 439.182 815.518 437.993L815.314 436.953L818.588 436.303C817.995 436.011 814.023 436.396 811.741 435.578Z"/><path fill="#F1F1F1" d="M560.449 268.367C559.701 266.036 557.973 264.865 558.668 262.693C569.17 271.207 580.358 280.515 589.42 290.551C594.539 296.221 598.514 303.235 603.577 308.973C607.352 313.208 614.24 314.977 619.003 319.762C628.161 328.962 631.687 338.195 637.509 349.401C640.92 355.966 643.959 360.523 646.604 367.68C648.241 372.132 649.314 376.772 649.796 381.491C649.962 383.096 650.106 384.702 650.23 386.311C662.39 401.084 672.285 417.723 672.568 437.508C672.622 441.251 672.765 445.35 673.143 449.07C685.605 448.856 702.146 447.111 714.755 445.745C728.618 444.254 742.468 442.641 756.302 440.907C769.809 438.976 783.375 437.486 796.979 436.438C799.82 436.191 809.298 435.286 811.741 435.578C814.023 436.396 817.995 436.011 818.588 436.303L815.314 436.953L815.518 437.993C814.17 439.182 805.454 437.087 800.4 440.195C756.306 441.713 712.422 453.559 667.54 454.488C667.532 453.954 667.518 453.42 667.499 452.885C666.991 437.313 663.499 419.434 655.838 405.77C653.028 400.758 648.905 395.952 646.361 390.555C643.784 385.086 643.753 379.757 642.389 374.021C641.792 371.511 640.116 367.047 639.028 364.758C636.814 360.097 634.661 355.408 632.49 350.732C628.018 341.097 624.64 330.697 616.462 323.464C611.116 318.736 605.046 316.353 600.185 310.908C594.299 304.032 589.515 296.257 583.609 289.396C579.782 284.95 575.213 281.319 570.748 277.549C567.237 274.584 563.804 271.521 560.449 268.367Z"/><path fill="#F1F1F1" d="M271.997 156.645L270.973 155.946L271.16 155.189C283.941 147.994 373.238 175.591 390.986 181.641C399.106 184.408 410.234 189.316 418.74 192.048C422.019 193.103 434.737 190.689 439.643 190.621C468.336 190.22 502.599 194.082 517.805 222.101C520.532 227.126 522.245 231.379 524.296 236.633C530.535 240.612 554.639 257.004 558.668 262.693C557.973 264.865 559.701 266.036 560.449 268.367C558.388 266.856 556.107 264.885 554.149 263.179C543.69 254.066 532.574 246.056 521.295 238.007C514.612 221.646 507.984 208.488 490.725 201.002C475.064 194.734 452.341 192.229 435.592 193.918C418.871 195.605 423.119 196.756 406.993 190.447C401.203 188.206 395.37 186.078 389.496 184.067C371.922 178.107 284.766 151.78 271.997 156.645Z"/><path fill="#F1F1F1" d="M271.997 156.645C281.253 162.957 287.775 167.764 295.892 175.84C269.687 170.668 253.578 172.841 227.823 172.404C238.714 168.971 275.189 169.636 286.689 171.726C283.369 168.654 274.127 160.005 271.997 156.645Z"/><path fill="#F1F1F1" d="M124.186 205.344C125.86 197.208 148.947 187.873 155.963 185.248C163.567 182.403 194.74 173.06 200.774 175.854C177.64 181.338 158.538 183.895 137.211 196.639C132.801 199.274 127.928 201.789 124.186 205.344Z"/><path fill="#E3393D" d="M305.597 171.033C339.235 179.542 372.46 189.602 405.168 201.18C402.728 202.61 398.22 205.067 396.044 206.58C378.51 218.557 365.051 233.272 353.989 251.324C343.792 267.965 335.938 286.349 331.613 305.399C329.252 315.802 332.664 322.41 338.996 330.237C334.993 348.385 332.362 362.22 332.972 381.073C298.886 396.201 282.691 420.736 277.458 457.483C277.567 459.683 276.999 465.294 276.81 467.745C227.356 443.007 190.297 404.888 165.528 355.471C174.738 360.09 182.49 366.246 192.382 370.22C199.833 373.804 211.215 375.025 218.106 379.22C226.036 384.048 230.568 388.814 239.355 393.133C226.962 380.576 213.11 367.207 202.273 353.552C174.069 318.015 145.595 280.466 102.956 261.449C100.259 260.247 90.8299 257.718 90.0387 255.144L91.5175 253.88C94.4333 251.764 99.671 248.37 102.864 246.784C108.087 243.438 117.88 238.773 123.687 236.286C157.12 221.969 196.372 212.662 232.875 215.199C242.079 215.838 253.531 219.187 262.844 221.226C258.438 210.68 182.723 197.613 169.194 195.557C174.433 194.113 179.711 192.818 185.023 191.672C225.986 181.641 283.998 177.803 323.888 193.515C318.193 185.62 311.943 178.406 305.597 171.033Z"/><path fill="#C83435" d="M91.5175 253.88C93.2881 256.946 99.1026 256.659 102.638 257.39C155.376 268.29 196.583 295.738 226.031 341.096C240.484 363.359 255.467 388.755 272.256 410.77C267.688 409.141 263.217 407.25 258.866 405.106C253.906 402.653 242.331 395.839 237.945 395.171C231.492 403.156 266.086 457.764 277.458 457.483C277.567 459.683 276.999 465.294 276.81 467.745C227.356 443.007 190.297 404.888 165.528 355.471C174.738 360.09 182.49 366.246 192.382 370.22C199.833 373.804 211.215 375.025 218.106 379.22C226.036 384.048 230.568 388.814 239.355 393.133C226.962 380.576 213.11 367.207 202.273 353.552C174.069 318.015 145.595 280.466 102.956 261.449C100.259 260.247 90.8299 257.718 90.0387 255.144L91.5175 253.88Z"/><path fill="#F4C2C0" d="M305.597 171.033C339.235 179.542 372.46 189.602 405.168 201.18C402.728 202.61 398.22 205.067 396.044 206.58C387.907 202.783 378.171 199.767 369.539 196.933C355.711 192.398 341.833 188.02 327.906 183.798C331.959 189.745 336.428 194.459 340.451 200.914C299.06 188.096 250.99 187.765 208.062 190.783C200.903 191.286 192.517 192.658 185.472 192.43L185.023 191.672C225.986 181.641 283.998 177.803 323.888 193.515C318.193 185.62 311.943 178.406 305.597 171.033Z"/><path fill="#F4C2C0" d="M102.864 246.784C108.087 243.438 117.88 238.773 123.687 236.286C157.12 221.969 196.372 212.662 232.875 215.199C242.079 215.838 253.531 219.187 262.844 221.226C269.757 222.612 273.448 224.048 279.858 227.076C239.785 222.893 203.406 221.321 163.443 229.572C148.665 232.706 134.097 236.76 119.825 241.712C116.296 242.92 105.486 247.185 102.864 246.784Z"/><path fill="#2E5EB8" d="M433.641 674.059C438.802 680.131 440.949 683.073 448.356 686.267C440.002 690.692 434.968 693.882 427.811 699.951C438.668 695.239 447.687 691.171 459.504 689.218C523.764 678.6 560.979 742.029 551.407 799.262C549.533 810.473 546.767 820.191 542.496 830.741C540.313 836.062 537.97 841.316 535.47 846.496C484.168 846.044 423.165 828.423 377.345 805.988C370.008 802.395 359.356 797.197 352.584 792.729C359.752 776.693 368.476 761.399 378.629 747.067C389.825 731.219 402.335 716.601 411.363 699.279C412.576 696.952 414.276 693.755 415.682 691.569C421.478 688.931 429.458 679.067 433.641 674.059Z"/><path fill="#F1F1F1" d="M447.83 475.666C478.295 471.695 508.278 477.234 535.692 491.103C546.001 496.318 559.91 504.82 567.121 513.913C563.498 515.053 560.173 515.548 556.44 516.201C542.288 513.892 527.979 513.941 514.185 517.985C490.028 525.067 475.103 534.58 462.893 556.476C470.071 551.893 476.697 545.454 484.093 541.077C484.696 543.484 485.365 545.875 486.1 548.246C493.958 573.664 509.736 596.971 531.438 612.559C538.931 617.941 546.292 621.753 554.394 626.05C544.407 652.655 547.075 670.29 563.812 693.427C561.395 687.502 559.973 682.132 558.392 676.001C589.03 709.879 613.563 710.142 645.831 734.035C635.261 732.199 629.625 731.293 618.964 730.976C644.511 751.454 656.292 763.721 661.324 796.557C654.301 789.492 648.204 780.891 640.884 773.64C642.461 779.123 650.331 804.782 642.674 807.202C635.172 804.787 603.535 775.938 595.48 768.954C596.622 773.81 599.993 792.108 595.159 794.841C586.854 794.676 575.618 779.665 570.395 774.248C560.166 763.64 559.48 749.373 554.354 736.032C544.308 709.886 529.115 695.637 504.166 684.401C487.371 662.069 478.352 634.851 478.489 606.909C483.91 607.785 491.403 608.373 496.819 608.596C486.335 604.662 475.24 601.758 465.013 597.249C444.578 588.241 422.06 576.514 412.215 555.456C413.233 554.595 414.236 553.717 415.224 552.821C439.549 530.705 446.281 507.434 447.83 475.666Z"/><path fill="#313131" d="M341.888 387.691C345.992 386.844 349.865 386.083 354.051 385.776C389.374 383.184 420.946 409.783 432.597 441.802C434.094 444.687 435.49 450.119 436.129 453.276C441.248 479.184 438.464 506.287 423.896 528.698C401.428 563.259 360.533 573.765 325.599 550.112C305.635 536.461 292.007 515.348 287.79 491.534C281.783 459.009 290.212 422.819 316.528 401.181C324.319 394.774 331.832 389.532 341.888 387.691Z"/><path fill="#F1F1F1" d="M341.888 387.691C345.992 386.844 349.865 386.083 354.051 385.776C389.374 383.184 420.946 409.783 432.597 441.802C430.957 441.143 427.758 436.017 426.74 434.339C411.851 409.788 385.83 392.491 357.292 388.872C353.281 388.364 345.341 389.257 341.888 387.691Z"/><path d="M344.369 399.194C356.435 397.043 372.095 402.364 382.017 409.015C419.45 434.109 429.093 488.801 403.848 525.799C392.721 542.106 380.15 548.817 361.118 552.401L360.383 552.506C346.4 554.453 329.626 548.605 318.661 540.105C282.699 512.229 276.975 455.819 305.014 420.395C315.317 407.377 328.083 401.075 344.369 399.194Z"/><path d="M297.244 446.663C303.36 430.219 312.115 417.457 328.544 410.01C340.643 404.393 354.505 403.928 366.953 408.724C421.114 429.402 427.353 519.44 373.228 542.488C361.014 547.553 347.279 547.501 335.104 542.346C321.444 536.697 311.298 526.388 303.62 513.991C299.957 507.915 298.294 503.16 295.756 496.56C293.171 486.146 290.746 467.193 294.378 456.935C294.764 453.917 296.179 449.523 297.244 446.663Z"/><path fill="#F1F1F1" d="M297.244 446.663C303.36 430.219 312.115 417.457 328.544 410.01C340.643 404.393 354.505 403.928 366.953 408.724C421.114 429.402 427.353 519.44 373.228 542.488C361.014 547.553 347.279 547.501 335.104 542.346C321.444 536.697 311.298 526.388 303.62 513.991L304.435 513.016C315.944 531.879 340.314 545.011 361.441 536.235C409.583 516.262 402.69 435.943 356.72 417.55C330.77 407.167 307.878 422.869 298.108 447.049L297.244 446.663Z"/><path fill="#313131" d="M294.378 456.935L295.252 457.015C292.839 472.908 292.657 480.172 296.629 495.923L295.756 496.56C293.171 486.146 290.746 467.193 294.378 456.935Z"/><path fill="#A2A3A7" d="M296.629 495.923C299.195 503.277 300.56 506.286 304.435 513.016L303.62 513.991C299.957 507.915 298.294 503.16 295.756 496.56L296.629 495.923Z"/><path fill="#A2A3A7" d="M294.378 456.935C294.764 453.917 296.179 449.523 297.244 446.663L298.108 447.049C297.021 450.255 295.812 453.671 295.252 457.015L294.378 456.935Z"/><path fill="#313131" d="M335.405 421.613C395.781 418.249 407.121 519.629 352.111 531.471C343.598 531.916 336.655 531.516 328.893 527.538C293.921 509.612 288.064 445.774 324.351 426.058C328.02 424.064 331.426 422.906 335.405 421.613Z"/><path fill="#F1F1F1" d="M333.776 426.601C335.099 426.509 336.425 426.453 337.752 426.433C361.971 426.242 378.242 449.296 379.885 471.623C380.143 475.136 380.136 478.655 380.141 482.175C378.519 477.797 376.967 473.303 375.402 468.897C364.58 442.395 345.398 427.891 316.593 435.272C322.488 429.452 326.067 428.189 333.776 426.601Z"/><path fill="#E3393D" d="M467.322 230.238C471.15 228.3 474.433 226.723 478.366 225.022C513.224 244.512 540.864 262.516 568.943 291.714C574.3 297.284 582.453 305.219 586.9 311.411C588.3 313.094 593.342 319.573 594.467 320.47C603.229 327.456 607.861 329.617 614.718 338.767C609.976 350.761 610.493 359.714 610.848 372.327C603.888 364.245 597.055 356.825 589.241 349.696C562.207 325.031 517.791 297.942 481.682 319.435C443.341 342.257 447.641 403.098 464.464 437.95C468.975 447.293 475.631 456.79 480.977 465.716C469.732 463.103 458.274 463.637 446.963 465.418C440.297 419.608 416.819 387.957 370.442 377.744C370.383 364.633 373.269 348.301 375.183 335.125C396.045 326.488 394.324 317.576 403.256 299.114C417.187 270.316 438.918 245.53 467.322 230.238Z"/><path fill="#F4C2C0" d="M467.322 230.238C471.15 228.3 474.433 226.723 478.366 225.022C513.224 244.512 540.864 262.516 568.943 291.714C574.3 297.284 582.453 305.219 586.9 311.411C584.918 311.022 558.749 287.927 555.022 284.946C528.291 263.563 498.172 245.038 467.322 230.238Z"/><path d="M452.391 340.978C460.853 303.991 487.325 293.109 522.592 300.12C521.289 302.171 521.07 303.271 519.13 304.232C486.274 301.138 467.752 311.796 452.391 340.978Z"/><path fill="#2A0201" d="M522.592 300.12C537.856 304.628 547.498 308.564 560.536 317.844C547.636 312.199 533.083 306.332 519.13 304.232C521.07 303.271 521.289 302.171 522.592 300.12Z"/><path fill="#F1B531" d="M634.04 460.167C641.837 461.406 654.292 463.392 661.929 463.56C701.384 464.423 742.029 457.666 781.17 452.853C824.451 447.532 857.346 445.042 900.296 451.506C900.461 452.572 900.674 453.569 900.671 454.639C904.19 455.749 905.753 455.543 908.696 457.748C891.192 463.356 873.639 468.963 856.418 475.4C829.676 485.396 803.414 496.75 777.01 507.604C688.553 543.967 614.227 578.668 521.804 530.842C519.461 529.63 517.105 528.39 514.856 527.012C522.346 524.541 527.94 523.21 535.524 521.497C539.71 520.551 553.52 517.777 556.44 516.201C560.173 515.548 563.498 515.053 567.121 513.913C568.042 514.15 568.957 514.286 569.89 513.997C596.034 505.897 616.412 486.524 631.559 464.375L634.04 460.167Z"/><path fill="#F1F1F1" d="M634.04 460.167C641.837 461.406 654.292 463.392 661.929 463.56C701.384 464.423 742.029 457.666 781.17 452.853C824.451 447.532 857.346 445.042 900.296 451.506C900.461 452.572 900.674 453.569 900.671 454.639C872.59 452.301 843.83 453.762 815.818 456.417C760.48 461.663 704.487 476.172 648.737 467.717C644.952 467.143 634.66 465.78 631.559 464.375L634.04 460.167Z"/><path d="M645.875 480.607C654.357 479.674 666.946 481.79 675.521 483.41L664.498 486.063C658.868 487.673 647.015 491.822 642.025 489.59C639.431 486.28 643.197 482.505 645.875 480.607Z"/><path fill="#F1F1F1" d="M508.851 322.668C544.897 319.352 584.614 352.775 607.826 377.683C611.47 381.594 615.283 386.121 618.831 390.196C616.608 375.623 616.733 360.789 619.204 346.256C627.261 359.927 632.474 375.555 637.732 390.49C630.784 410.921 637.895 434.307 644.778 453.749C640.489 453.442 636.559 453.207 632.263 453.101C625.78 458.724 623.719 463.396 618.559 469.977C611.457 478.904 603.169 486.818 593.925 493.501C602.131 462.996 599.622 440.654 587.993 411.388C576.76 386.062 552.178 355.404 520.523 366.977C513.96 369.377 509.455 374.489 504.941 379.571C511.823 375.256 514.583 374.141 522.425 371.913C499.646 393.62 501.123 425.958 508.766 454.313C510.59 461.078 513.754 468.064 516.446 474.56C507.502 470.678 499.037 468.86 489.619 466.687C466.112 432.975 448.751 379.569 474.918 341.974C482.906 330.498 495.204 324.655 508.851 322.668Z"/><path fill="#313131" d="M408.818 208.626C428.388 199.794 458.143 202.481 479.092 206.238C494.923 211.323 502.109 216.677 510.934 231.511C511.212 231.978 511.368 232.372 511.575 232.855C503.077 227.478 486.784 215.623 476.225 218.752C444.826 228.056 420.295 253.814 403.571 281.035C400.337 286.229 397.452 291.632 394.933 297.208C390.87 305.994 388.16 315.088 381.8 322.271C373.924 331.164 340.555 330.651 340.091 315.996C339.323 291.719 356.561 262.623 369.984 242.826C377.605 232.165 398.278 213.008 408.818 208.626Z"/><path fill="#F1F1F1" d="M408.818 208.626C428.388 199.794 458.143 202.481 479.092 206.238C476.215 207.94 472.79 208.921 469.68 210.21C464.299 212.427 459.082 215.024 454.07 217.981C429.626 232.612 409.461 256.617 395.372 281.151C391.118 288.559 387.665 296.489 383.608 303.845C393.811 269.689 421.19 231.139 452.065 212.474C453.273 211.744 455.119 210.791 454.737 209.422C444.835 205.628 418.367 211.005 408.818 208.626Z"/><path fill="#F1F1F1" d="M537.307 375.145C561.451 375.78 576.496 401.525 584.547 421.441C593.222 442.903 597.519 470.983 589.187 493.213C586.207 501.163 577.546 504.242 570.236 507.057C566.592 504.229 562.769 500.953 559.182 498.002C555.305 494.875 551.393 492.219 547.309 489.388C547.89 488.487 548.441 487.568 548.962 486.632C554.926 476.151 555.205 464.606 551.979 452.777C549.139 442.362 538.745 422.524 524.899 426.749C519.167 428.498 515.823 435.261 513.24 440.354C511.487 419.561 510.477 380.374 537.307 375.145Z"/><path fill="#E3393D" d="M376.972 571.395C388.788 568.422 392.435 566.957 403.793 561.717C417.457 585.766 437.945 595.567 463.873 603.689C465.901 604.324 466.875 604.177 468.54 605.562C469.289 607.089 469.047 608.296 468.977 610.02C470.227 633.01 474.739 647.42 486.303 667.719C489.087 672.607 493.432 677.592 495.979 682.109C477.726 679.058 465.963 679.064 448.356 686.267C440.949 683.073 438.802 680.131 433.641 674.059C429.458 679.067 421.478 688.931 415.682 691.569C418.098 683.651 421.027 678.643 422.827 669.48C428.254 641.841 420.643 623.154 405.977 600.648C394.231 586.021 391.97 583.836 376.972 571.395Z"/><path fill="#C83435" d="M376.972 571.395C388.788 568.422 392.435 566.957 403.793 561.717C417.457 585.766 437.945 595.567 463.873 603.689C465.901 604.324 466.875 604.177 468.54 605.562C469.289 607.089 469.047 608.296 468.977 610.02C459.629 609.546 451.198 610.449 441.51 609.293C434.145 608.415 410.224 598.831 405.977 600.648C394.231 586.021 391.97 583.836 376.972 571.395Z"/><path fill="#F1B531" d="M503.541 531.486C506.669 532.987 512.003 542.873 514.336 546.532C518.553 553.153 523.411 559.343 528.841 565.012C574.766 613.814 641.904 628.37 706.604 630.342C679.678 615.152 652.461 590.578 638.64 562.799L645.877 561.18C649.831 568.371 653.261 574.262 657.917 580.979C675.145 603.153 696.147 619.033 720.354 632.981C667.03 647.102 605.501 638.339 554.943 617.113C520.963 602.847 501.421 571.606 488.637 538.4C493.186 535.883 498.729 533.605 503.541 531.486Z"/><path fill="#F1F1F1" d="M563.375 776.877C572.488 785.795 580.919 798.824 593.997 802.491C603.306 805.101 604.083 792.103 605.309 786.5C616.994 797.403 629.742 810.304 645.185 814.873C643.755 821.771 642.66 826.33 640.025 832.829L633.81 835.038C605.739 843.77 576.047 847.024 546.744 846.857C554.826 829.51 560.272 814.584 562.328 795.181C562.969 789.129 562.905 782.973 563.375 776.877Z"/><path fill="#5E0E0C" d="M519.269 539.585C525.371 541.77 535.077 547.042 542.202 549.852C573.169 562.064 598.674 564.452 631.672 563.557C643.469 586.288 654.223 599.091 675.017 614.359C679.557 617.693 684.6 620.639 689.015 623.908L688.844 624.455L686.607 624.603C673.87 622.675 661.211 620.268 648.656 617.384C646.774 590.432 620.445 568.545 593.745 567.659C584.218 567.343 580.976 568.703 571.415 564.332C560.245 559.225 550.302 560.818 538.974 564.179C535.083 560.169 519.999 543.953 519.269 539.585Z"/><path fill="#E3393D" d="M543.54 568.694C564.297 567.828 576.024 570.679 593.433 583.189C594.246 581.849 595.213 580.548 596.123 579.263L591.508 574.196C609.631 577.331 622.809 583.253 634.123 598.71C637.297 603.047 640.878 610.613 641.944 615.883C601.981 604.025 575.96 596.38 543.54 568.694Z"/><path fill="#2A0201" d="M596.123 579.263C600.309 584.135 603.822 588.819 606.598 594.667C602.032 590.48 598.23 587.133 593.433 583.189C594.246 581.849 595.213 580.548 596.123 579.263Z"/><path fill="#F1F1F1" d="M345.738 333.991C355.087 336.721 358.158 336.704 367.811 336.525C366.016 345.505 364.472 354.683 363.582 363.795C363.362 366.05 362.827 375.125 362.075 376.638L360.625 376.846C352.203 376.883 348.136 377.345 339.95 379.257C340.732 363.036 342.011 349.855 345.738 333.991Z"/><path fill="#F1F1F1" d="M641.617 399.344C652.982 407.877 661.926 441.347 661.39 455.316C660.83 455.114 659.038 454.619 658.819 454.138C654.371 444.382 658.088 428.678 642.613 428.416C640.901 418.815 641.054 409.043 641.617 399.344Z"/><path fill="#F1F1F1" d="M532.994 439.264C542.641 440.837 543.728 450.265 539.565 457.701C529.678 456.844 528.895 446.59 532.994 439.264Z"/><path fill="#D6B67B" d="M900.296 451.506C906.287 452.296 912.22 453.477 918.057 455.04C914.499 456.265 912.351 456.966 908.696 457.748C905.753 455.543 904.19 455.749 900.671 454.639C900.674 453.569 900.461 452.572 900.296 451.506Z"/><path fill="#F1F1F1" d="M647.929 435.105C652.803 436.263 652.83 439.832 652.03 443.913C647.433 442.562 647.1 439.12 647.929 435.105Z"/><path fill="#F1F1F1" fill-opacity="0.027450981" d="M160.179 207.428C162.64 207.728 165.098 208.048 167.553 208.388L160.867 209.984C159.575 209.676 159.562 209.623 158.386 208.97L158.416 208.248L160.179 207.428Z"/></svg>